<svg width="80" height="80" viewBox="0 0 80 80" fill="none" xmlns="http://www.w3.org/2000/svg">
<path d="M40.09 23.0866C41.5925 23.0349 42.7689 21.7749 42.717 20.2722C42.6655 18.7695 41.4055 17.5933 39.9027 17.645L40.09 23.0866ZM23.5109 38.4101L20.7898 38.4936C20.7907 38.5255 20.7923 38.5575 20.7944 38.5894L23.5109 38.4101ZM18.864 50.8135L20.6412 52.8757C20.6899 52.8339 20.7371 52.7904 20.7827 52.745L18.864 50.8135ZM17.2713 52.1312L18.8705 54.3345C18.9155 54.3019 18.9594 54.2678 19.0023 54.2325L17.2713 52.1312ZM32.918 60.872C34.4216 60.872 35.6405 59.6531 35.6405 58.1496C35.6405 56.6461 34.4216 55.4271 32.918 55.4271V60.872ZM40.09 17.645C38.5873 17.5933 37.3273 18.7695 37.2754 20.2722C37.2239 21.7749 38.4 23.0349 39.9027 23.0866L40.09 17.645ZM56.4817 38.4101L59.1983 38.5891C59.2005 38.5571 59.2019 38.5255 59.203 38.4936L56.4817 38.4101ZM61.1287 50.8099L59.2099 52.7414C59.2556 52.7864 59.3028 52.8303 59.3515 52.872L61.1287 50.8099ZM62.7215 52.1275L60.9904 54.2289C61.0325 54.2634 61.0753 54.2968 61.1192 54.3287L62.7215 52.1275ZM47.0747 55.4271C45.5712 55.4271 44.3523 56.6461 44.3523 58.1496C44.3523 59.6531 45.5712 60.872 47.0747 60.872V55.4271ZM37.274 20.3658C37.274 21.8693 38.4929 23.0882 39.9964 23.0882C41.4999 23.0882 42.7188 21.8693 42.7188 20.3658H37.274ZM42.7188 14.5906C42.7188 13.0871 41.4999 11.8682 39.9964 11.8682C38.4929 11.8682 37.274 13.0871 37.274 14.5906H42.7188ZM32.918 55.4271C31.4144 55.4271 30.1956 56.6461 30.1956 58.1496C30.1956 59.6531 31.4144 60.872 32.918 60.872V55.4271ZM47.0747 60.872C48.5782 60.872 49.7972 59.6531 49.7972 58.1496C49.7972 56.6461 48.5782 55.4271 47.0747 55.4271V60.872ZM35.6405 58.1496C35.6405 56.6461 34.4216 55.4271 32.918 55.4271C31.4144 55.4271 30.1956 56.6461 30.1956 58.1496H35.6405ZM49.7972 58.1496C49.7972 56.6461 48.5782 55.4271 47.0747 55.4271C45.5712 55.4271 44.3523 56.6461 44.3523 58.1496H49.7972ZM39.9027 17.645C28.9337 18.0223 20.4496 27.4115 20.7898 38.4936L26.232 38.3266C25.98 30.1126 32.2465 23.3564 40.09 23.0866L39.9027 17.645ZM20.7944 38.5894C21.0493 42.4495 19.6314 46.2137 16.9453 48.882L20.7827 52.745C24.6027 48.9499 26.5846 43.6394 26.2274 38.2308L20.7944 38.5894ZM17.0867 48.7514C16.518 49.2414 16.0399 49.6186 15.5404 50.0298L19.0023 54.2325C19.4017 53.9033 20.0137 53.4165 20.6412 52.8757L17.0867 48.7514ZM15.6722 49.9278C14.8763 50.5057 14.153 51.3311 13.6139 52.2027C13.0815 53.063 12.5721 54.2213 12.5068 55.5026C12.4354 56.9042 12.9182 58.4628 14.3524 59.5594C15.6355 60.541 17.3263 60.872 19.1152 60.872V55.4271C18.5224 55.4271 18.1302 55.3691 17.8896 55.3077C17.651 55.2471 17.6086 55.1952 17.66 55.2344C17.7266 55.2856 17.8253 55.3938 17.8904 55.5495C17.9495 55.6914 17.9444 55.7843 17.9446 55.78C17.9451 55.7694 17.9524 55.6932 18.0042 55.5502C18.0548 55.4104 18.1346 55.2446 18.2441 55.0678C18.353 54.8917 18.4768 54.728 18.5994 54.5915C18.7256 54.4507 18.8236 54.3683 18.8705 54.3345L15.6722 49.9278ZM19.1152 60.872H32.918V55.4271H19.1152V60.872ZM39.9027 23.0866C47.7463 23.3564 54.0126 30.1126 53.7607 38.3266L59.203 38.4936C59.5431 27.4115 51.0589 18.0223 40.09 17.645L39.9027 23.0866ZM53.7654 38.2311C53.4093 43.6386 55.3912 48.9474 59.2099 52.7414L63.0474 48.8784C60.362 46.2108 58.9442 42.448 59.1983 38.5891L53.7654 38.2311ZM59.3515 52.872C59.9791 53.4129 60.5911 53.8997 60.9904 54.2289L64.4522 50.0262C63.9527 49.6149 63.4747 49.2378 62.9059 48.7477L59.3515 52.872ZM61.1192 54.3287C61.1679 54.3639 61.2673 54.4478 61.3944 54.5897C61.5182 54.7277 61.643 54.8921 61.753 55.0692C61.8634 55.2471 61.944 55.4137 61.9951 55.5542C62.0474 55.6979 62.055 55.7745 62.0554 55.7847C62.0558 55.789 62.0503 55.695 62.1098 55.552C62.1752 55.3945 62.275 55.2856 62.3422 55.234C62.3937 55.1945 62.3512 55.2464 62.1117 55.3074C61.8699 55.3691 61.4761 55.4271 60.8811 55.4271V60.872C62.6718 60.872 64.3647 60.5413 65.6486 59.5598C67.0857 58.4614 67.5671 56.8998 67.4926 55.4972C67.4248 54.2151 66.9126 53.0575 66.3793 52.198C65.8392 51.3275 65.1161 50.5035 64.3234 49.9264L61.1192 54.3287ZM60.8811 55.4271H47.0747V60.872H60.8811V55.4271ZM42.7188 20.3658V14.5906H37.274V20.3658H42.7188ZM32.918 60.872H47.0747V55.4271H32.918V60.872ZM30.1956 58.1496C30.1956 63.5974 34.5189 68.1318 39.9964 68.1318V62.687C37.6551 62.687 35.6405 60.721 35.6405 58.1496H30.1956ZM39.9964 68.1318C45.4736 68.1318 49.7972 63.5974 49.7972 58.1496H44.3523C44.3523 60.721 42.3373 62.687 39.9964 62.687V68.1318Z" fill="#A7A7A7"/>
</svg>
