<svg width="80" height="80" viewBox="0 0 80 80" fill="none" xmlns="http://www.w3.org/2000/svg">
<path fill-rule="evenodd" clip-rule="evenodd" d="M52.9222 14.757C49.511 11.3457 43.8125 11.9958 41.2572 16.088L34.1443 27.4793C34.1443 27.4793 34.1405 27.4856 34.1272 27.4952C34.1109 27.5068 34.0761 27.527 34.0177 27.5434C33.8902 27.5793 33.7236 27.5766 33.5747 27.5214C31.147 26.6214 26.9798 25.6327 22.6524 27.2627C20.321 28.1409 19.1576 30.162 19.0308 32.2125C18.9099 34.169 19.7 36.1802 21.1533 37.6334L29.9921 46.4722L13.292 63.1722C12.3157 64.1487 12.3157 65.7314 13.292 66.7079C14.2683 67.6842 15.8513 67.6842 16.8276 66.7079L33.5276 50.0077L42.3665 58.8467C43.8197 60.2999 45.831 61.0902 47.7875 60.9692C49.838 60.8424 51.8592 59.6789 52.7372 57.3477C54.3672 53.0202 53.3785 48.8529 52.4787 46.4252C52.4235 46.2764 52.4207 46.1099 52.4565 45.9822C52.473 45.9239 52.4932 45.8892 52.505 45.8727C52.5145 45.8594 52.5205 45.8559 52.5205 45.8559L63.912 38.7427C68.0042 36.1874 68.6545 30.4891 65.243 27.0778L52.9222 14.757ZM45.4985 18.7362C46.3502 17.3722 48.2497 17.1554 49.3867 18.2926L61.7075 30.6133C62.8445 31.7504 62.628 33.6499 61.2637 34.5016L49.8725 41.6147C47.5107 43.0894 46.985 45.9907 47.7905 48.1632C48.505 50.0907 49.075 52.8857 48.0582 55.5852C47.9887 55.7694 47.9115 55.8359 47.864 55.8687C47.8035 55.9104 47.6842 55.9659 47.479 55.9787C47.0352 56.0062 46.4015 55.8104 45.902 55.3112L24.6889 34.0979C24.1895 33.5986 23.9939 32.9648 24.0213 32.521C24.034 32.3157 24.0896 32.1966 24.1314 32.136C24.1641 32.0886 24.2306 32.0112 24.4149 31.9418C27.1144 30.925 29.9092 31.4951 31.8368 32.2096C34.0094 33.0151 36.9105 32.4894 38.3855 30.1276L45.4985 18.7362Z" fill="#A7A7A7"/>
</svg>
