<svg width="80" height="80" viewBox="0 0 80 80" fill="none" xmlns="http://www.w3.org/2000/svg">
<path fill-rule="evenodd" clip-rule="evenodd" d="M12.5 36.6401C12.4983 25.1249 20.6312 15.212 31.9248 12.9638C43.2187 10.7158 54.5279 16.7586 58.9357 27.3968C63.344 38.0351 59.6232 50.3056 50.0493 56.7045C40.4754 63.1029 27.7149 61.8477 19.5714 53.7058C15.0443 49.1805 12.5006 43.0417 12.5 36.6401Z" stroke="#A7A7A7" stroke-width="5" stroke-linecap="round" stroke-linejoin="round"/>
<path fill-rule="evenodd" clip-rule="evenodd" d="M21 36.5029C20.9989 29.1087 26.2213 22.7433 33.4733 21.2998C40.7254 19.8562 47.9874 23.7365 50.8178 30.5675C53.6485 37.3987 51.2593 45.2779 45.1115 49.3867C38.9638 53.4954 30.7699 52.6894 25.5408 47.4612C22.6337 44.5554 21.0004 40.6135 21 36.5029Z" fill="#A7A7A7"/>
<path d="M53.7068 53.7098L67.5 67.503" stroke="#A7A7A7" stroke-width="5" stroke-linecap="round" stroke-linejoin="round"/>
</svg>
